#!OML:ASF E:\Steps\Project 1\Capture day 1\Session 2\Subject.ASF
:FULLY-SPECIFIED
:DEGREES
4029
root 10.044 16.4898 5.64575 22.4342 1.02796 3.59927
lowerback -21.9811 -2.92738 -5.99799
upperback 1.43572 -2.14952 -0.991013
thorax 14.2639 -1.38394 1.56739
lowerneck -0.488193 3.29311 -3.89317
upperneck 21.6762 3.61805 6.12394
head 6.44126 1.88498 2.82023
rclavicle 5.26779e-015 -9.14409e-015
rhumerus -39.0786 -6.46106 -77.1453
rradius 40.0482
rwrist -0.504375
rhand -1.67535 -777.042
rfingers 7.12502
rthumb 23.9847 274.436
lclavicle 5.26779e-015 -9.14409e-015
lhumerus -23.4046 -8.02056 76.4205
lradius 31.9602
lwrist -5.94065
lhand -14.9453 -10.9035
lfingers 7.12502
lthumb 11.2175 -341.223
rfemur -22.5394 2.82109 13.2129
rtibia 8.66188
rfoot -18.3515 -13.0069
rtoes -8.76306
lfemur -30.0405 -4.71979 -16.5867
ltibia 16.3034
lfoot 356.466 -2.02606
ltoes -32.805
4030
root 10.0878 16.4871 5.66707 22.4347 0.932012 3.55058
lowerback -21.9762 -2.99804 -6.45947
upperback 1.49048 -2.12447 -0.944497
thorax 14.348 -1.41298 1.88925
lowerneck -0.647237 3.13351 -3.88748
upperneck 21.9862 3.41504 6.01547
head 6.58248 1.78056 2.78622
rclavicle -2.18663e-015 7.55382e-015
rhumerus -38.9842 -6.6373 -77.1165
rradius 40.0404
rwrist -0.137823
rhand -1.36608 -778.464
rfingers 7.12502
rthumb 24.2813 273.054
lclavicle -2.18663e-015 7.55382e-015
lhumerus -23.2446 -8.15277 76.5695
lradius 32.381
lwrist -5.8321
lhand -15.376 -11.2511
lfingers 7.12502
lthumb 10.8021 -341.549
rfemur -22.5005 3.83146 12.8158
rtibia 8.6711
rfoot -18.6797 -13.8352
rtoes -7.97898
lfemur -29.4227 -4.30911 -16.8507
ltibia 15.1635
lfoot 356.557 -1.88501
ltoes -32.4471
4031
root 10.1473 16.4852 5.67829 22.5829 1.23081 3.37187
lowerback -21.9824 -3.07662 -6.53476
upperback 1.55921 -2.21713 -0.862345
thorax 14.4494 -1.46847 1.99123
lowerneck -0.863478 2.99002 -3.73584
upperneck 22.0213 3.25694 5.784
head 6.64883 1.70126 2.68351
rclavicle -6.16232e-015 -1.74931e-014
rhumerus -38.6054 -6.94811 -77.017
rradius 39.766
rwrist 0.201532
rhand -1.53639 -777.734
rfingers 7.12502
rthumb 24.118 273.762
lclavicle -6.16232e-015 -1.74931e-014
lhumerus -22.8859 -8.40971 76.7459
lradius 32.6393
lwrist -5.52731
lhand -15.8034 -11.642
lfingers 7.12502
lthumb 10.3899 -341.919
rfemur -22.55 3.62167 12.8476
rtibia 8.71143
rfoot -18.6975 -14.0032
rtoes -8.96404
lfemur -29.1892 -4.19033 -17.0395
ltibia 14.4524
lfoot 356.632 -2.04373
ltoes -30.6589
4032
root 10.2059 16.486 5.69173 22.6911 1.34752 3.35015
lowerback -22.0407 -3.15086 -6.78367
upperback 1.65937 -2.24076 -0.854183
thorax 14.6184 -1.50436 2.12805
lowerneck -1.33914 2.90726 -3.22235
upperneck 22.1775 3.23564 5.14267
head 6.80982 1.68639 2.40217
rclavicle 3.27995e-015 -5.56597e-015
rhumerus -38.1826 -7.04342 -77.0423
rradius 39.519
rwrist 0.231381
rhand -2.15791 -776.972
rfingers 7.12502
rthumb 23.5219 274.446
lclavicle 3.27995e-015 -5.56597e-015
lhumerus -22.3986 -8.64808 76.8975
lradius 32.7455
lwrist -5.15435
lhand -16.0706 -11.321
lfingers 7.12502
lthumb 10.132 -341.585
rfemur -22.667 3.23613 12.7217
rtibia 8.93815
rfoot -18.6672 -13.9191
rtoes -10.3698
lfemur -28.9396 -4.24486 -17.346
ltibia 13.8466
lfoot 356.695 -2.01326
ltoes -29.2116
4033
root 10.2636 16.4873 5.71168 22.7689 1.48817 3.30936
lowerback -22.1162 -3.20202 -6.94385
upperback 1.70604 -2.2537 -0.874028
thorax 14.7271 -1.52475 2.18726
lowerneck -1.60373 2.78969 -3.40488
upperneck 22.41 3.00999 5.56057
head 6.92858 1.59903 2.56659
rclavicle -2.96189e-014 -7.55382e-015
rhumerus -38.0819 -6.99086 -77.1113
rradius 39.5178
rwrist 0.161529
rhand -2.11651 -779.011
rfingers 7.12502
rthumb 23.5616 272.413
lclavicle -2.96189e-014 -7.55382e-015
lhumerus -21.9786 -8.79592 76.9757
lradius 32.8516
lwrist -4.85432
lhand -16.1599 -11.1913
lfingers 7.12502
lthumb 10.0459 -341.451
rfemur -22.6981 2.83842 12.6546
rtibia 9.13211
rfoot -18.6506 -13.8242
rtoes -12.5028
lfemur -28.6274 -4.46363 -17.5639
ltibia 13.2549
lfoot 356.702 -1.97059
ltoes -27.7023
4034
root 10.3167 16.4902 5.72237 22.847 1.71841 3.16651
lowerback -22.0104 -3.22949 -7.06528
upperback 1.6714 -2.27269 -0.843127
thorax 14.6334 -1.54212 2.2897
lowerneck -1.37934 2.65836 -3.5416
upperneck 22.2634 2.76704 5.93202
head 6.84233 1.49894 2.68879
rclavicle -2.56432e-014 -8.34896e-015
rhumerus -38.2775 -7.00722 -77.1128
rradius 39.7507
rwrist 0.136292
rhand -2.36935 -774.255
rfingers 7.12502
rthumb 23.3191 277.138
lclavicle -2.56432e-014 -8.34896e-015
lhumerus -21.7606 -8.99948 77.0432
lradius 33.1072
lwrist -4.48649
lhand -16.3969 -11.7263
lfingers 7.12502
lthumb 9.81723 -341.975
rfemur -22.8181 2.76309 12.6513
rtibia 9.35607
rfoot -18.689 -14.1616
rtoes -14.438
lfemur -28.4638 -4.49928 -17.6185
ltibia 12.8341
lfoot 356.686 -2.21797
ltoes -26.8351
4035
root 10.3682 16.496 5.72432 22.8814 1.81668 3.04474
lowerback -21.6114 -3.22704 -7.29185
upperback 1.56687 -2.25324 -0.8211
thorax 14.2864 -1.54292 2.46716
lowerneck -1.09371 2.52077 -3.45668
upperneck 22.1216 2.55775 5.98438
head 6.75725 1.40608 2.67129
rclavicle 1.07344e-014 5.1684e-015
rhumerus -38.5493 -7.19374 -77.0924
rradius 40.0103
rwrist 0.246148
rhand -1.46455 -778.548
rfingers 7.12502
rthumb 24.1869 272.957
lclavicle 1.07344e-014 5.1684e-015
lhumerus -21.655 -9.54908 77.145
lradius 33.3386
lwrist -3.80509
lhand -16.8251 -11.9855
lfingers 7.12502
lthumb 9.40414 -342.215
rfemur -23.0382 3.06643 12.4624
rtibia 9.73468
rfoot -19.0374 -14.4059
rtoes -12.8745
lfemur -28.3244 -4.38191 -17.7065
ltibia 12.4509
lfoot 356.692 -2.49118
ltoes -27.5612
4036
root 10.4235 16.4973 5.73942 23.045 1.90336 2.79478
lowerback -21.6108 -3.16288 -7.29655
upperback 1.49502 -2.17281 -0.7991
thorax 14.193 -1.5041 2.52515
lowerneck -0.638197 2.31481 -3.25345
upperneck 21.9114 2.2837 5.83383
head 6.62978 1.27343 2.56097
rclavicle -9.14409e-015 -7.15625e-015
rhumerus -38.7595 -7.48739 -77.0631
rradius 40.2624
rwrist 0.201456
rhand -2.58395 -775.292
rfingers 7.12502
rthumb 23.1132 276.075
lclavicle -9.14409e-015 -7.15625e-015
lhumerus -21.3444 -10.0047 77.2825
lradius 33.3133
lwrist -3.48876
lhand -16.8578 -11.7639
lfingers 7.12502
lthumb 9.37256 -341.992
rfemur -23.3223 2.99779 12.4966
rtibia 10.0766
rfoot -19.2589 -14.2669
rtoes -11.1291
lfemur -28.2188 -4.33292 -17.662
ltibia 11.9551
lfoot 356.767 -2.66264
ltoes -28.0392
4037
root 10.4748 16.4978 5.7528 23.2483 2.03448 2.53251
lowerback -21.7956 -3.11062 -7.30661
upperback 1.491 -2.08831 -0.764046
thorax 14.2884 -1.47026 2.59456
lowerneck -0.317729 1.97867 -3.33854
upperneck 21.5153 1.76275 6.22264
head 6.46423 1.04071 2.66071
rclavicle -8.34896e-015 1.03368e-014
rhumerus -38.945 -7.67675 -77.077
rradius 40.6713
rwrist 0.0772571
rhand -2.72222 -775.507
rfingers 7.12502
rthumb 22.9805 275.843
lclavicle -8.34896e-015 1.03368e-014
lhumerus -21.041 -10.0317 77.3963
lradius 33.3931
lwrist -3.65664
lhand -16.7699 -11.7075
lfingers 7.12502
lthumb 9.45739 -341.94
rfemur -23.7354 2.6142 12.6849
rtibia 10.5989
rfoot -19.1428 -14.2485
rtoes -12.4266
lfemur -28.2286 -4.29276 -17.5383
ltibia 11.5633
lfoot 356.917 -2.91331
ltoes -25.9902
4038
root 10.5207 16.4979 5.76216 23.4148 2.0255 2.43963
lowerback -21.8503 -3.11685 -7.56455
upperback 1.49684 -2.01977 -0.780542
thorax 14.3313 -1.45919 2.74386
lowerneck -0.530046 1.80585 -3.3501
upperneck 21.8733 1.50535 6.29463
head 6.62848 0.925773 2.68345
rclavicle 3.57812e-015 9.54166e-015
rhumerus -39.1377 -7.68742 -77.201
rradius 41.168
rwrist 0.106923
rhand -2.19132 -778.155
rfingers 7.12502
rthumb 23.4899 273.259
lclavicle 3.57812e-015 9.54166e-015
lhumerus -20.8301 -10.0343 77.3733
lradius 33.6639
lwrist -3.63805
lhand -16.7306 -11.8419
lfingers 7.12502
lthumb 9.49527 -342.076
rfemur -24.2337 2.52085 12.5774
rtibia 11.3606
rfoot -19.3196 -14.0935
rtoes -11.9606
lfemur -28.2805 -4.07401 -17.6343
ltibia 11.3475
lfoot 356.94 -3.27781
ltoes -24.5185
